<svg width="19.500000" height="19.500000" viewBox="0 0 19.5 19.5" fill="none" xmlns="http://www.w3.org/2000/svg" xmlns:xlink="http://www.w3.org/1999/xlink">
	<desc>
			Created with Pixso.
	</desc>
	<defs/>
	<path id="Vector" d="M18.06 13.19C17.61 14.28 16.94 15.27 16.11 16.11C15.27 16.94 14.28 17.61 13.19 18.06C12.1 18.51 10.93 18.75 9.75 18.75C8.56 18.75 7.39 18.51 6.3 18.06C5.21 17.61 4.22 16.94 3.38 16.11C2.55 15.27 1.88 14.28 1.43 13.19C0.98 12.1 0.75 10.93 0.75 9.75C0.75 7.36 1.69 5.07 3.38 3.38C5.07 1.69 7.36 0.75 9.75 0.75C12.13 0.75 14.42 1.69 16.11 3.38C17.8 5.07 18.75 7.36 18.75 9.75C18.75 10.93 18.51 12.1 18.06 13.19Z" stroke="#0B0223" stroke-opacity="1.000000" stroke-width="1.500000" stroke-linejoin="round"/>
</svg>
